<svg width="20" height="22" viewBox="0 0 20 22" fill="none" xmlns="http://www.w3.org/2000/svg">
<path d="M9.835 10.5619C9.37703 10.5619 8.93781 10.38 8.61398 10.0561C8.29014 9.73231 8.10821 9.29309 8.10821 8.83512C8.10821 8.37715 8.29014 7.93794 8.61398 7.6141C8.93781 7.29026 9.37703 7.10834 9.835 7.10834C10.293 7.10834 10.7322 7.29026 11.056 7.6141C11.3799 7.93794 11.5618 8.37715 11.5618 8.83512C11.5618 9.06189 11.5171 9.28643 11.4303 9.49593C11.3436 9.70544 11.2164 9.8958 11.056 10.0561C10.8957 10.2165 10.7053 10.3437 10.4958 10.4305C10.2863 10.5172 10.0618 10.5619 9.835 10.5619ZM9.835 4.00012C8.55268 4.00012 7.32288 4.50952 6.41614 5.41626C5.5094 6.323 5 7.5528 5 8.83512C5 12.4614 9.835 17.8144 9.835 17.8144C9.835 17.8144 14.67 12.4614 14.67 8.83512C14.67 7.5528 14.1606 6.323 13.2539 5.41626C12.3471 4.50952 11.1173 4.00012 9.835 4.00012Z" fill="#8C01C0"/>
</svg>
