<svg width="48" height="46" viewBox="0 0 48 46" fill="none" xmlns="http://www.w3.org/2000/svg">
<g id="Group 7">
<g id="Group 6">
<rect id="Background" width="45" height="45" rx="22.5" fill="url(#paint0_linear_14_979)"/>
</g>
<g id="Union" filter="url(#filter0_bd_14_979)">
<mask id="path-2-inside-1_14_979" fill="white">
<path fill-rule="evenodd" clip-rule="evenodd" d="M27.4141 18.9249C27.5084 18.9657 27.6141 18.9712 27.7121 18.9405L32.4552 17.4498C32.4552 17.4498 32.6684 17.3109 32.7952 17.4376C32.9219 17.5644 32.8873 17.7367 32.8873 17.7367L30.7118 27.4987H15.3794L12.6412 17.7171C12.6412 17.7171 12.574 17.5236 12.6412 17.4376C12.7301 17.324 13.0103 17.4542 13.0103 17.4542L17.4882 18.9381C17.585 18.9702 17.69 18.9667 17.7844 18.9282C17.8788 18.8897 17.9563 18.8188 18.003 18.7282L22.1423 10.6964C22.1423 10.6964 22.2515 10.3394 22.7585 10.3394C23.1388 10.3394 23.2619 10.6964 23.2619 10.6964L27.1988 18.7184C27.2434 18.8109 27.3199 18.8842 27.4141 18.9249ZM16.4436 28.3417C15.8836 28.3417 15.4296 28.7956 15.4296 29.3557C15.4296 29.9157 15.8836 30.3697 16.4436 30.3697H29.6261C30.1861 30.3697 30.6401 29.9157 30.6401 29.3557C30.6401 28.7956 30.1861 28.3417 29.6261 28.3417H16.4436Z"/>
</mask>
<path fill-rule="evenodd" clip-rule="evenodd" d="M27.4141 18.9249C27.5084 18.9657 27.6141 18.9712 27.7121 18.9405L32.4552 17.4498C32.4552 17.4498 32.6684 17.3109 32.7952 17.4376C32.9219 17.5644 32.8873 17.7367 32.8873 17.7367L30.7118 27.4987H15.3794L12.6412 17.7171C12.6412 17.7171 12.574 17.5236 12.6412 17.4376C12.7301 17.324 13.0103 17.4542 13.0103 17.4542L17.4882 18.9381C17.585 18.9702 17.69 18.9667 17.7844 18.9282C17.8788 18.8897 17.9563 18.8188 18.003 18.7282L22.1423 10.6964C22.1423 10.6964 22.2515 10.3394 22.7585 10.3394C23.1388 10.3394 23.2619 10.6964 23.2619 10.6964L27.1988 18.7184C27.2434 18.8109 27.3199 18.8842 27.4141 18.9249ZM16.4436 28.3417C15.8836 28.3417 15.4296 28.7956 15.4296 29.3557C15.4296 29.9157 15.8836 30.3697 16.4436 30.3697H29.6261C30.1861 30.3697 30.6401 29.9157 30.6401 29.3557C30.6401 28.7956 30.1861 28.3417 29.6261 28.3417H16.4436Z" fill="url(#paint1_linear_14_979)"/>
<path d="M27.7121 18.9405L27.772 19.1313L27.7721 19.1313L27.7121 18.9405ZM27.4141 18.9249L27.4935 18.7414L27.4935 18.7414L27.4141 18.9249ZM32.4552 17.4498L32.5152 17.6406L32.5414 17.6324L32.5644 17.6174L32.4552 17.4498ZM32.7952 17.4376L32.9366 17.2962L32.9366 17.2962L32.7952 17.4376ZM32.8873 17.7367L33.0826 17.7802L33.0834 17.7761L32.8873 17.7367ZM30.7118 27.4987V27.6987H30.8721L30.907 27.5422L30.7118 27.4987ZM15.3794 27.4987L15.1868 27.5526L15.2277 27.6987H15.3794V27.4987ZM12.6412 17.7171L12.8342 17.6631L12.8301 17.6515L12.6412 17.7171ZM12.6412 17.4376L12.4837 17.3144H12.4837L12.6412 17.4376ZM13.0103 17.4542L12.926 17.6355L12.9364 17.6404L12.9474 17.644L13.0103 17.4542ZM17.4882 18.9381L17.5511 18.7483L17.5511 18.7483L17.4882 18.9381ZM17.7844 18.9282L17.8599 19.1134H17.8599L17.7844 18.9282ZM18.003 18.7282L18.1808 18.8199L18.1808 18.8198L18.003 18.7282ZM22.1423 10.6964L22.3201 10.788L22.3284 10.7721L22.3336 10.7549L22.1423 10.6964ZM23.2619 10.6964L23.0728 10.7616L23.0769 10.7734L23.0824 10.7845L23.2619 10.6964ZM27.1988 18.7184L27.3788 18.6314L27.3783 18.6303L27.1988 18.7184ZM27.6522 18.7496C27.6 18.766 27.5437 18.7631 27.4935 18.7414L27.3347 19.1085C27.473 19.1683 27.6282 19.1764 27.772 19.1313L27.6522 18.7496ZM32.3953 17.259L27.6521 18.7497L27.7721 19.1313L32.5152 17.6406L32.3953 17.259ZM32.9366 17.2962C32.7968 17.1564 32.6193 17.1775 32.5249 17.2033C32.4738 17.2172 32.4305 17.2364 32.4007 17.2514C32.3854 17.2591 32.3729 17.2661 32.3637 17.2714C32.3591 17.2741 32.3553 17.2765 32.3523 17.2783C32.3508 17.2792 32.3495 17.28 32.3485 17.2807C32.348 17.281 32.3475 17.2813 32.3471 17.2816C32.3469 17.2817 32.3467 17.2818 32.3465 17.282C32.3464 17.282 32.3463 17.2821 32.3462 17.2821C32.3462 17.2822 32.3461 17.2822 32.3461 17.2822C32.3461 17.2822 32.346 17.2823 32.4552 17.4498C32.5644 17.6174 32.5644 17.6174 32.5643 17.6174C32.5643 17.6175 32.5643 17.6175 32.5642 17.6175C32.5642 17.6176 32.5641 17.6176 32.564 17.6176C32.5639 17.6177 32.5638 17.6178 32.5637 17.6179C32.5635 17.618 32.5633 17.6181 32.5632 17.6182C32.563 17.6183 32.5629 17.6184 32.563 17.6183C32.5632 17.6182 32.5641 17.6176 32.5656 17.6168C32.5685 17.615 32.5736 17.6122 32.5804 17.6088C32.5945 17.6017 32.6124 17.594 32.6304 17.5891C32.6743 17.5771 32.6668 17.5921 32.6538 17.579L32.9366 17.2962ZM32.8873 17.7367C33.0834 17.7761 33.0834 17.776 33.0834 17.7759C33.0834 17.7759 33.0834 17.7758 33.0834 17.7758C33.0835 17.7757 33.0835 17.7755 33.0835 17.7754C33.0836 17.7752 33.0836 17.7749 33.0837 17.7747C33.0838 17.7741 33.0839 17.7736 33.084 17.7729C33.0842 17.7717 33.0845 17.7703 33.0848 17.7687C33.0853 17.7655 33.0859 17.7616 33.0866 17.757C33.0879 17.7478 33.0893 17.7359 33.0902 17.7217C33.0922 17.6936 33.0927 17.655 33.0873 17.6105C33.0765 17.5216 33.0405 17.4001 32.9366 17.2962L32.6538 17.579C32.6766 17.6019 32.6867 17.6299 32.6902 17.6589C32.692 17.6733 32.6918 17.6857 32.6912 17.6939C32.6909 17.6978 32.6906 17.7003 32.6905 17.7011C32.6905 17.7015 32.6905 17.7014 32.6906 17.7008C32.6906 17.7005 32.6907 17.7 32.6908 17.6995C32.6909 17.6992 32.6909 17.6988 32.691 17.6985C32.691 17.6983 32.6911 17.6981 32.6911 17.6979C32.6911 17.6978 32.6911 17.6977 32.6912 17.6976C32.6912 17.6976 32.6912 17.6975 32.6912 17.6974C32.6912 17.6974 32.6912 17.6973 32.8873 17.7367ZM30.907 27.5422L33.0825 17.7802L32.6921 17.6932L30.5166 27.4552L30.907 27.5422ZM15.3794 27.6987H30.7118V27.2987H15.3794V27.6987ZM12.4486 17.771L15.1868 27.5526L15.572 27.4448L12.8338 17.6632L12.4486 17.771ZM12.4837 17.3144C12.4351 17.3765 12.4192 17.4462 12.4139 17.4968C12.4085 17.549 12.4125 17.5989 12.418 17.6377C12.4237 17.6776 12.432 17.7128 12.4387 17.7376C12.4421 17.7502 12.4452 17.7607 12.4476 17.7683C12.4488 17.7722 12.4498 17.7753 12.4506 17.7778C12.451 17.779 12.4514 17.78 12.4516 17.7808C12.4518 17.7813 12.4519 17.7816 12.452 17.782C12.4521 17.7821 12.4521 17.7823 12.4522 17.7824C12.4522 17.7825 12.4522 17.7825 12.4522 17.7826C12.4523 17.7826 12.4523 17.7827 12.4523 17.7827C12.4523 17.7827 12.4523 17.7828 12.6412 17.7171C12.8301 17.6515 12.8302 17.6515 12.8302 17.6515C12.8302 17.6515 12.8302 17.6516 12.8302 17.6516C12.8302 17.6517 12.8302 17.6517 12.8302 17.6518C12.8303 17.6518 12.8303 17.6519 12.8303 17.652C12.8304 17.6521 12.8304 17.6522 12.8304 17.6523C12.8304 17.6524 12.8304 17.6523 12.8303 17.6521C12.8302 17.6516 12.8298 17.6505 12.8293 17.6489C12.8283 17.6457 12.8267 17.6403 12.8249 17.6335C12.821 17.6193 12.8167 17.6007 12.814 17.5814C12.8111 17.5612 12.8109 17.5465 12.8118 17.5383C12.8128 17.5285 12.8137 17.5417 12.7987 17.5608L12.4837 17.3144ZM13.0103 17.4542C13.0945 17.2728 13.0945 17.2728 13.0945 17.2727C13.0944 17.2727 13.0944 17.2727 13.0944 17.2727C13.0943 17.2727 13.0942 17.2726 13.0942 17.2726C13.094 17.2725 13.0939 17.2725 13.0937 17.2724C13.0933 17.2722 13.0929 17.272 13.0924 17.2718C13.0914 17.2713 13.0902 17.2708 13.0886 17.2701C13.0856 17.2687 13.0815 17.2669 13.0764 17.2648C13.0664 17.2605 13.0525 17.2548 13.0357 17.2485C13.0027 17.236 12.9556 17.22 12.9032 17.2082C12.8527 17.1968 12.7859 17.1865 12.717 17.1932C12.648 17.1999 12.5522 17.2268 12.4837 17.3144L12.7987 17.5608C12.7747 17.5916 12.7472 17.5921 12.7558 17.5913C12.7644 17.5905 12.7843 17.5914 12.815 17.5984C12.8437 17.6048 12.8722 17.6143 12.8945 17.6227C12.9054 17.6268 12.914 17.6304 12.9197 17.6328C12.9225 17.634 12.9245 17.6349 12.9256 17.6354C12.9261 17.6356 12.9264 17.6357 12.9265 17.6358C12.9265 17.6358 12.9265 17.6358 12.9264 17.6357C12.9264 17.6357 12.9263 17.6357 12.9263 17.6357C12.9262 17.6356 12.9262 17.6356 12.9261 17.6356C12.9261 17.6356 12.9261 17.6356 12.9261 17.6356C12.926 17.6356 12.926 17.6355 13.0103 17.4542ZM17.5511 18.7483L13.0732 17.2643L12.9474 17.644L17.4253 19.128L17.5511 18.7483ZM17.7089 18.743C17.6586 18.7635 17.6027 18.7654 17.5511 18.7483L17.4253 19.128C17.5672 19.175 17.7214 19.1699 17.8599 19.1134L17.7089 18.743ZM17.8253 18.6365C17.8004 18.6847 17.7591 18.7225 17.7089 18.743L17.8599 19.1134C17.9984 19.0569 18.1122 18.9528 18.1808 18.8199L17.8253 18.6365ZM21.9646 10.6048L17.8253 18.6366L18.1808 18.8198L22.3201 10.788L21.9646 10.6048ZM22.7585 10.1394C22.4523 10.1394 22.2479 10.2494 22.12 10.3754C22.0581 10.4363 22.0173 10.4977 21.9915 10.5453C21.9786 10.5691 21.9692 10.5898 21.9628 10.6056C21.9595 10.6136 21.957 10.6204 21.9551 10.6258C21.9541 10.6285 21.9533 10.6309 21.9527 10.6329C21.9523 10.634 21.952 10.6349 21.9518 10.6357C21.9516 10.6361 21.9515 10.6365 21.9514 10.6369C21.9513 10.6371 21.9513 10.6373 21.9512 10.6374C21.9512 10.6375 21.9512 10.6376 21.9512 10.6377C21.9511 10.6378 21.9511 10.6379 22.1423 10.6964C22.3336 10.7549 22.3336 10.755 22.3335 10.7551C22.3335 10.7551 22.3335 10.7553 22.3335 10.7553C22.3334 10.7555 22.3334 10.7556 22.3333 10.7558C22.3332 10.7561 22.3332 10.7563 22.3331 10.7566C22.3329 10.7571 22.3328 10.7575 22.3327 10.7578C22.3325 10.7585 22.3323 10.7589 22.3323 10.759C22.3322 10.7592 22.3325 10.7583 22.3333 10.7565C22.3347 10.7528 22.3379 10.7456 22.3431 10.736C22.3536 10.7166 22.3718 10.6887 22.4006 10.6604C22.454 10.6078 22.5577 10.5394 22.7585 10.5394V10.1394ZM23.2619 10.6964C23.451 10.6312 23.4509 10.6311 23.4509 10.631C23.4509 10.631 23.4509 10.6309 23.4509 10.6308C23.4508 10.6307 23.4508 10.6306 23.4507 10.6304C23.4506 10.6301 23.4505 10.6298 23.4504 10.6295C23.4502 10.6289 23.4499 10.6281 23.4496 10.6273C23.449 10.6256 23.4483 10.6236 23.4474 10.6213C23.4456 10.6166 23.4432 10.6106 23.4402 10.6035C23.4342 10.5892 23.4256 10.5702 23.414 10.548C23.391 10.504 23.3552 10.4453 23.3031 10.386C23.1971 10.2651 23.0201 10.1394 22.7585 10.1394V10.5394C22.8772 10.5394 22.9519 10.5922 23.0025 10.6498C23.0287 10.6797 23.0475 10.7102 23.0595 10.7332C23.0653 10.7445 23.0693 10.7534 23.0715 10.7587C23.0726 10.7613 23.0733 10.7629 23.0735 10.7635C23.0736 10.7638 23.0736 10.7638 23.0735 10.7635C23.0734 10.7633 23.0733 10.7631 23.0732 10.7628C23.0732 10.7626 23.0731 10.7624 23.0731 10.7622C23.073 10.7622 23.073 10.762 23.073 10.7619C23.0729 10.7619 23.0729 10.7618 23.0729 10.7618C23.0729 10.7617 23.0728 10.7616 23.2619 10.6964ZM27.3783 18.6303L23.4415 10.6083L23.0824 10.7845L27.0192 18.8065L27.3783 18.6303ZM27.4935 18.7414C27.4433 18.7197 27.4026 18.6806 27.3788 18.6314L27.0187 18.8054C27.0842 18.9411 27.1964 19.0487 27.3347 19.1085L27.4935 18.7414ZM15.6296 29.3557C15.6296 28.9061 15.994 28.5417 16.4436 28.5417V28.1416C15.7731 28.1416 15.2296 28.6852 15.2296 29.3557H15.6296ZM16.4436 30.1697C15.994 30.1697 15.6296 29.8053 15.6296 29.3557H15.2296C15.2296 30.0262 15.7731 30.5697 16.4436 30.5697V30.1697ZM29.6261 30.1697H16.4436V30.5697H29.6261V30.1697ZM30.4401 29.3557C30.4401 29.8053 30.0756 30.1697 29.6261 30.1697V30.5697C30.2966 30.5697 30.8401 30.0262 30.8401 29.3557H30.4401ZM29.6261 28.5417C30.0756 28.5417 30.4401 28.9061 30.4401 29.3557H30.8401C30.8401 28.6852 30.2966 28.1416 29.6261 28.1416V28.5417ZM16.4436 28.5417H29.6261V28.1416H16.4436V28.5417Z" fill="url(#paint2_linear_14_979)" mask="url(#path-2-inside-1_14_979)"/>
</g>
</g>
<defs>
<filter id="filter0_bd_14_979" x="-12.3887" y="-14.6606" width="70.2803" height="70.0303" filterUnits="userSpaceOnUse" color-interpolation-filters="sRGB">
<feFlood flood-opacity="0" result="BackgroundImageFix"/>
<feGaussianBlur in="BackgroundImageFix" stdDeviation="12.5"/>
<feComposite in2="SourceAlpha" operator="in" result="effect1_backgroundBlur_14_979"/>
<feColorMatrix in="SourceAlpha" type="matrix" values="0 0 0 0 0 0 0 0 0 0 0 0 0 0 0 0 0 0 127 0" result="hardAlpha"/>
<feOffset dx="5" dy="5"/>
<feGaussianBlur stdDeviation="5"/>
<feColorMatrix type="matrix" values="0 0 0 0 0.415686 0 0 0 0 0.215686 0 0 0 0 1 0 0 0 0.5 0"/>
<feBlend mode="normal" in2="effect1_backgroundBlur_14_979" result="effect2_dropShadow_14_979"/>
<feBlend mode="normal" in="SourceGraphic" in2="effect2_dropShadow_14_979" result="shape"/>
</filter>
<linearGradient id="paint0_linear_14_979" x1="1.30734" y1="36.3461" x2="43.7096" y2="35.8972" gradientUnits="userSpaceOnUse">
<stop stop-color="#310BE8"/>
<stop offset="0.348958" stop-color="#0027FE"/>
<stop offset="0.651042" stop-color="#8200FF"/>
<stop offset="1" stop-color="#D703FF"/>
</linearGradient>
<linearGradient id="paint1_linear_14_979" x1="17.793" y1="18.9652" x2="30.1891" y2="30.8636" gradientUnits="userSpaceOnUse">
<stop stop-color="white"/>
<stop offset="1" stop-color="white" stop-opacity="0.2"/>
</linearGradient>
<linearGradient id="paint2_linear_14_979" x1="20.0479" y1="15.2978" x2="29.9657" y2="32.6512" gradientUnits="userSpaceOnUse">
<stop stop-color="white"/>
<stop offset="1" stop-color="white" stop-opacity="0"/>
</linearGradient>
</defs>
</svg>
