<svg width="72" height="74" viewBox="0 0 72 74" fill="none" xmlns="http://www.w3.org/2000/svg">
<path d="M3.26087 29.5204C1.61097 23.1855 6.39181 17 12.938 17H59.062C65.6082 17 70.389 23.1855 68.7391 29.5204L59.1027 66.5204C57.9554 70.9256 53.9776 74 49.4255 74H22.5745C18.0223 74 14.0446 70.9256 12.8973 66.5204L3.26087 29.5204Z" fill="url(#paint0_linear_2001_538)"/>
<g clip-path="url(#clip0_2001_538)">
<path d="M22.9215 13.5387L28.4912 22.1606L37.3984 15.8949C37.6477 15.7198 37.9333 15.6032 38.2339 15.5538C38.5345 15.5044 38.8424 15.5235 39.1346 15.6095C39.4268 15.6956 39.6959 15.8465 39.9217 16.051C40.1475 16.2555 40.3243 16.5083 40.4389 16.7906L44.4524 26.673L53.9792 22.22C54.3531 22.0456 54.7714 21.9897 55.1781 22.0596C55.5847 22.1295 55.9603 22.322 56.2546 22.6112C56.5488 22.9004 56.7477 23.2726 56.8247 23.678C56.9016 24.0834 56.8528 24.5026 56.685 24.8795L48.0585 44.2169L16.5016 35.2913L19.211 14.3792C19.2638 13.9674 19.4419 13.5817 19.7212 13.2745C20.0004 12.9673 20.3674 12.7533 20.7723 12.6616C21.1773 12.5698 21.6006 12.6048 21.985 12.7617C22.3694 12.9186 22.6963 13.1898 22.9215 13.5387ZM16.1024 37.2831L47.2832 46.1023L46.732 48.0511C46.5858 48.568 46.2403 49.0056 45.7714 49.2677C45.3026 49.5298 44.7488 49.5949 44.232 49.4487L16.9488 41.7319C16.4319 41.5857 15.9943 41.2402 15.7322 40.7713C15.4701 40.3025 15.405 39.7487 15.5512 39.2319L16.1024 37.2831Z" fill="url(#paint1_linear_2001_538)"/>
<ellipse cx="20.6309" cy="12.2402" rx="3.39112" ry="3.39112" fill="url(#paint2_linear_2001_538)"/>
<ellipse cx="38.7168" cy="15.6313" rx="3.39111" ry="3.39112" fill="url(#paint3_linear_2001_538)"/>
<ellipse cx="55.6724" cy="22.4136" rx="3.39112" ry="3.39112" fill="url(#paint4_linear_2001_538)"/>
</g>
<defs>
<linearGradient id="paint0_linear_2001_538" x1="39.2244" y1="138.464" x2="39.2244" y2="16.6984" gradientUnits="userSpaceOnUse">
<stop stop-color="#E85E76"/>
<stop offset="1" stop-color="#FF6565" stop-opacity="0"/>
</linearGradient>
<linearGradient id="paint1_linear_2001_538" x1="21.1818" y1="12.883" x2="54.8937" y2="25.2198" gradientUnits="userSpaceOnUse">
<stop offset="0.159213" stop-color="#FF6565"/>
<stop offset="1" stop-color="#3624FF"/>
</linearGradient>
<linearGradient id="paint2_linear_2001_538" x1="17.5028" y1="9.34138" x2="23.7471" y2="9.71766" gradientUnits="userSpaceOnUse">
<stop offset="0.159213" stop-color="#FF6565"/>
<stop offset="1" stop-color="#3624FF"/>
</linearGradient>
<linearGradient id="paint3_linear_2001_538" x1="35.5888" y1="12.7325" x2="41.833" y2="13.1088" gradientUnits="userSpaceOnUse">
<stop offset="0.159213" stop-color="#FF6565"/>
<stop offset="1" stop-color="#3624FF"/>
</linearGradient>
<linearGradient id="paint4_linear_2001_538" x1="52.5444" y1="19.5147" x2="58.7886" y2="19.891" gradientUnits="userSpaceOnUse">
<stop offset="0.159213" stop-color="#FF6565"/>
<stop offset="1" stop-color="#3624FF"/>
</linearGradient>
<clipPath id="clip0_2001_538">
<rect width="48.606" height="48.606" fill="white" transform="translate(18.2288) rotate(15.7931)"/>
</clipPath>
</defs>
</svg>
